<?xml version="1.0" encoding="UTF-8"?>
<!DOCTYPE svg PUBLIC "-//W3C//DTD SVG 1.1//EN" "http://www.w3.org/Graphics/SVG/1.1/DTD/svg11.dtd">
<!-- Creator: CorelDRAW -->
<svg xmlns="http://www.w3.org/2000/svg" xml:space="preserve" width="1.6362in" height="1.6362in" version="1.1" style="shape-rendering:geometricPrecision; text-rendering:geometricPrecision; image-rendering:optimizeQuality; fill-rule:evenodd; clip-rule:evenodd"
viewBox="0 0 1407.94 1407.94"
 xmlns:xlink="http://www.w3.org/1999/xlink"
 xmlns:xodm="http://www.corel.com/coreldraw/odm/2003">
 <defs>
  <style type="text/css">
   <![CDATA[
    .str0 {stroke:#3B5648;stroke-width:0.03;stroke-miterlimit:2.61313;stroke-opacity:0.584314}
    .str1 {stroke:#3B5648;stroke-width:0.03;stroke-miterlimit:2.61313}
    .fil7 {fill:none}
    .fil5 {fill:none;fill-rule:nonzero}
    .fil4 {fill:none;fill-rule:nonzero}
    .fil1 {fill:#262626;fill-rule:nonzero}
    .fil2 {fill:#606262;fill-rule:nonzero}
    .fil0 {fill:#E1F6FA;fill-rule:nonzero}
    .fil6 {fill:#EB1700;fill-rule:nonzero}
    .fil3 {fill:white;fill-rule:nonzero}
   ]]>
  </style>
   <clipPath id="id0">
    <path d="M-0 1407.94l1407.94 0 0 -1407.94 -1407.94 0 0 1407.94z"/>
   </clipPath>
 </defs>
 <g id="Layer_x0020_1">
  <metadata id="CorelCorpID_0Corel-Layer"/>
  <g>
  </g>
  <g style="clip-path:url(#id0)">
   <g id="_1214206232688">
    <path class="fil0" d="M154.27 639.27c-247.9,-199.2 -88.8,-561.18 208.87,-448.07 99.92,42.38 306.62,-171.18 458.76,15.8 93.1,114.43 156.64,59.31 355.12,30.44 237.59,-23.61 381.83,497.73 -48.56,620.08 -218.72,42.91 -250.54,243.57 -534.79,200.29 -284.25,-43.29 -191.49,-219.35 -439.4,-418.55z"/>
    <path class="fil1" d="M886.66 590.79c-0.11,97.82 -1.49,195.63 -0.53,293.44 0.88,89.45 3.28,179.11 1.83,268.58 -0.98,59.39 -14.99,121.04 -122.05,123.78 -45.87,1.16 -90.04,0.71 -135.83,-2.13 -25.57,-1.59 -60.05,1.39 -94.69,-1.54 -66.32,-5.61 -99.42,-52.24 -100.62,-121.07 -1.91,-110.91 -4.92,-621.57 -2.73,-732.48 0.59,-30.21 -0.36,-56.18 6.62,-85.84 6.8,-28.87 37.37,-49.23 63.98,-50.29 72.14,-2.87 144.42,-3.71 216.62,-2.88 31.36,0.35 70.02,-0.26 101.27,3.85 28.59,3.76 53.7,13.47 57.7,49.34 5.4,48.51 7.14,100.45 7.83,148.37 0.49,36.31 0.64,72.59 0.6,108.88z"/>
    <path class="fil2" d="M610.82 361.84c-0.96,-3.23 -0.42,-6.01 1.82,-8.27 0.22,-0.24 0.52,-0.37 0.82,-0.37 25.75,-0.74 51.47,-1.49 77.21,-2.2 2.55,-0.08 5.1,0.19 7.65,0.07 2.91,-0.13 4.55,0.85 3.61,4.75 -0.66,2.74 0.7,6.81 -4.19,6.17 -24.78,-3.23 -49.58,-0.72 -74.37,0.07 -3.94,-0.49 -7.86,-0.95 -11.76,0.25 -0.33,0.1 -0.68,-0.09 -0.79,-0.48z"/>
    <path class="fil2" d="M662.56 321.89c-0.41,2.33 -1.96,3.91 -4.33,5.04 -0.28,0.1 -0.56,0.19 -0.85,0.26 -0.88,0.23 -1.78,0.32 -2.66,0.22 -2.6,-0.46 -4.2,-2.33 -4.92,-4.53 -0.11,-0.35 -0.2,-0.73 -0.28,-1.11 -0.75,-4.13 0.4,-8.46 5.1,-10.05 0.32,-0.06 0.64,-0.12 0.95,-0.14 1.53,-0.12 2.85,0.32 4.15,1.29 0.4,0.39 0.71,0.79 0.98,1.23 0.13,0.21 0.24,0.43 0.35,0.65 0.17,0.34 0.32,0.67 0.45,1.01 0.12,0.33 0.23,0.67 0.31,0.99 0.28,1.59 0.7,2.76 0.8,4.24 -0.01,0.28 -0.01,0.58 -0.06,0.9z"/>
    <path class="fil2" d="M560.82 363.41c-2.92,1.16 -5.81,0.5 -8.72,-1.38 -0.34,-0.24 -0.64,-0.49 -0.92,-0.78 -0.87,-0.82 -1.59,-1.8 -2.1,-2.87 -1.31,-3.25 -0.32,-6.39 1.67,-8.74 0.33,-0.39 0.67,-0.76 1.06,-1.08 4.17,-3.77 9.87,-5.49 14.97,-1.29 0.32,0.33 0.59,0.65 0.83,0.98 1.2,1.66 1.65,3.44 1.46,5.6 -0.16,0.72 -0.41,1.38 -0.71,1.96 -0.14,0.3 -0.32,0.59 -0.48,0.87 -0.25,0.43 -0.55,0.83 -0.84,1.21 -0.28,0.37 -0.58,0.73 -0.89,1.07 -1.59,1.44 -2.64,2.71 -4.23,3.86 -0.31,0.19 -0.66,0.39 -1.07,0.58z"/>
    <path class="fil3" d="M865.13 1089.03c-10.09,-173.27 2.32,-344.89 -7.09,-518.2 -2.39,-43.8 -1.55,-68.09 -2.41,-111.6 -0.57,-29.37 -2.95,-37.93 -3.65,-50.56 -0.87,-15.28 -126.87,-3.81 -137.3,-3.99 -71.15,-1.22 -159.72,2.57 -237.72,4.62 -3.41,0.09 -6.5,2.37 -7.29,6.26 -3.12,15.24 -2.63,47.82 -3,60.33 -2.55,85.57 -0.42,168.56 -2.6,254.13 -2.73,107.41 10.05,180.18 7.84,289.58 -0.63,31.55 -0.15,64.58 2.48,108.06 0.58,9.48 21.29,9.64 25.48,9.47 111.42,-4.72 250.05,7.95 362.25,-4.07 1.88,-0.2 3.29,-2.13 3.24,-4.33 -0.42,-15.21 0.72,-12.68 -0.17,-27.87l-0.06 -11.83z"/>
    <path class="fil2" d="M696.67 1211.17c0.16,7.93 -2.24,16.1 -7.33,23.4 -5.54,7.97 -13.34,12.02 -23.05,11.78 -16.1,-0.39 -29.32,-6.35 -37.85,-20.65 -3.11,-5.24 -4.96,-10.9 -4.7,-17.04 0.14,-3.31 1.05,-6.56 2.56,-9.48 4.35,-8.49 9.84,-16.17 17.89,-21.58 6.11,-4.11 12.94,-5.47 20.18,-4.19 16.07,2.85 29.1,13.75 31.94,30.45 0.37,2.12 0.19,4.22 0.36,7.32z"/>
    <line class="fil4 str0" x1="1304.86" y1="836.69" x2="1273.22" y2= "836.76" />
    <line class="fil4 str0" x1="1211.49" y1="639.57" x2="1238.63" y2= "623.27" />
    <line class="fil4 str0" x1="798.98" y1="995.39" x2="826.12" y2= "979.1" />
    <line class="fil4 str0" x1="725.16" y1="794.08" x2="756.81" y2= "793.65" />
    <line class="fil4 str0" x1="805.36" y1="607.49" x2="829.82" y2= "627.58" />
    <line class="fil4 str0" x1="1165.45" y1="976.06" x2="1189.89" y2= "996.15" />
    <line class="fil5 str1" x1="1025.95" y1="510.38" x2="1027.74" y2= "542.06" />
    <path class="fil6" d="M769.07 749.76c-10.42,-18.23 -30.79,-29.44 -52.82,-29.44l-167.96 0c-3.08,0 -5.68,2.42 -5.68,5.49 0,1.32 0.71,2.64 1.66,3.74l36.48 34.05c3.32,3.08 7.58,4.83 12.08,4.61l118.21 0c8.53,0 15.4,6.15 15.4,14.06 0,7.91 -6.63,14.28 -15.16,14.28l-81.25 0c-3.08,0 -5.68,2.41 -5.68,5.49 0,1.32 0.71,2.64 1.66,3.74l36.48 34.05c3.32,3.08 7.59,4.61 12.32,4.61l36.95 0c47.85,0 84.1,-47.46 57.33,-94.69z"/>
   </g>
  </g>
  <polygon class="fil7" points="-0,1407.94 1407.94,1407.94 1407.94,0 -0,0 "/>
 </g>
</svg>
